<svg width="820" height="470" viewBox="0 0 820 470" fill="none" xmlns="http://www.w3.org/2000/svg" font-family="'JetBrains Mono','SF Mono','DejaVu Sans Mono','Courier New',monospace">
  <!-- window -->
  <rect x="1" y="1" width="818" height="468" rx="13" fill="#282a36" stroke="#44475a" stroke-width="1.5"/>
  <path d="M1 14 A13 13 0 0 1 14 1 H806 A13 13 0 0 1 819 14 V35 H1 Z" fill="#21222c"/>
  <line x1="1" y1="35" x2="819" y2="35" stroke="#44475a" stroke-width="1"/>
  <circle cx="24" cy="18" r="6" fill="#ff5555"/>
  <circle cx="44" cy="18" r="6" fill="#f1fa8c"/>
  <circle cx="64" cy="18" r="6" fill="#50fa7b"/>
  <text x="410" y="22" text-anchor="middle" font-size="12.5" fill="#6272a4" letter-spacing="0.4">dzhem@archlinux: ~/about — btop</text>

  <!-- header -->
  <text x="22" y="58" font-size="13"><tspan fill="#50fa7b" font-weight="700">btop</tspan><tspan fill="#6272a4">  ·  monitoring dzhem-aptula</tspan></text>
  <text x="798" y="58" text-anchor="end" font-size="12" fill="#6272a4">uptime 5y+ · load: shipping</text>

  <!-- ===== stack box ===== -->
  <rect x="14" y="72" width="792" height="176" rx="9" fill="none" stroke="#44475a" stroke-width="1.3"/>
  <rect x="30" y="66" width="50" height="12" fill="#282a36"/>
  <text x="36" y="76" font-size="12.5" font-weight="700" fill="#50fa7b">stack</text>
  <text x="788" y="76" text-anchor="end" font-size="11.5" fill="#6272a4">6 groups</text>

  <g font-size="13.5">
    <text x="30" y="106" fill="#8be9fd">▪</text>
    <text x="46" y="106" fill="#8be9fd" font-weight="600">cloud / k8s</text>
    <text x="178" y="106" fill="#e9eaf6">Azure · Kubernetes · KEDA · Helm</text>

    <text x="30" y="131" fill="#50fa7b">▪</text>
    <text x="46" y="131" fill="#50fa7b" font-weight="600">iac / gitops</text>
    <text x="178" y="131" fill="#e9eaf6">Terraform · Terragrunt · ArgoCD</text>

    <text x="30" y="156" fill="#bd93f9">▪</text>
    <text x="46" y="156" fill="#bd93f9" font-weight="600">backend</text>
    <text x="178" y="156" fill="#e9eaf6">Java/Spring · Python/FastAPI · Go · gRPC</text>

    <text x="30" y="181" fill="#ffb86c">▪</text>
    <text x="46" y="181" fill="#ffb86c" font-weight="600">data / ai</text>
    <text x="178" y="181" fill="#e9eaf6">LangGraph · Databricks · Spark · Airflow</text>

    <text x="30" y="206" fill="#ff79c6">▪</text>
    <text x="46" y="206" fill="#ff79c6" font-weight="600">stores</text>
    <text x="178" y="206" fill="#e9eaf6">PostgreSQL · MySQL · MongoDB · Redis</text>

    <text x="30" y="231" fill="#f1fa8c">▪</text>
    <text x="46" y="231" fill="#f1fa8c" font-weight="600">ci / obs</text>
    <text x="178" y="231" fill="#e9eaf6">GitHub Actions · Docker · Datadog · Grafana</text>
  </g>

  <!-- ===== whoami box (about + contact combined) ===== -->
  <rect x="14" y="264" width="792" height="190" rx="9" fill="none" stroke="#44475a" stroke-width="1.3"/>
  <rect x="30" y="258" width="68" height="12" fill="#282a36"/>
  <text x="36" y="268" font-size="12.5" font-weight="700" fill="#bd93f9">whoami</text>

  <g font-size="13.5">
    <text x="32" y="296"><tspan fill="#6272a4">role      </tspan><tspan fill="#f8f8f2">Software &amp; Cloud Engineer</tspan></text>
    <text x="32" y="318"><tspan fill="#6272a4">location  </tspan><tspan fill="#f8f8f2">Ghent, Belgium</tspan></text>
    <text x="32" y="340"><tspan fill="#6272a4">focus     </tspan><tspan fill="#8be9fd">cloud-platforms · kubernetes · azure · ai-ml · devops · backend</tspan></text>
    <text x="32" y="362"><tspan fill="#6272a4">env       </tspan><tspan fill="#f8f8f2">nvim</tspan><tspan fill="#6272a4">  ·  os </tspan><tspan fill="#f8f8f2">arch</tspan><tspan fill="#6272a4" font-style="italic">  # btw</tspan></text>
    <line x1="32" y1="378" x2="788" y2="378" stroke="#343746" stroke-width="1"/>
    <text x="32" y="402"><tspan fill="#6272a4">linkedin  </tspan><tspan fill="#8be9fd">linkedin.com/in/dzhemaptula</tspan></text>
    <text x="32" y="424"><tspan fill="#6272a4">email     </tspan><tspan fill="#8be9fd">dzhem.aptula@gmail.com</tspan></text>
    <text x="32" y="446"><tspan fill="#6272a4">cv        </tspan><tspan fill="#f8f8f2">available on request</tspan><tspan fill="#6272a4">  ↦  </tspan><tspan fill="#8be9fd">dzhem.aptula@gmail.com</tspan></text>
  </g>
</svg>
